<svg xmlns="http://www.w3.org/2000/svg" width="16" height="16" fill="currentColor" viewBox="0 -5000 5000 5000">
  <g transform="scale(1.0, -1.0)">
    <path d="M2315 4994 c-16 -2 -73 -9 -125 -15 -548 -62 -1120 -351 -1502 -757 -372 -397 -591 -860 -670 -1417 -17 -119 -17 -503 1 -620 58 -393 189 -748 388 -1050 113 -171 188 -262 337 -410 383 -381 857 -617 1406 -702 161 -25 539 -25 700 0 555 86 1027 323 1416 711 388 389 625 861 711 1416 25 161 25 539 0 700 -69 448 -248 862 -519 1203 -398 500 -968 827 -1613 923 -95 14 -467 27 -530 18z m668 -1439 c98 -18 193 -45 282 -82 62 -25 215 -113 215 -122 0 -4 -40 -56 -88 -117 -48 -61 -117 -149 -154 -196 l-66 -85 -69 33 c-148 73 -371 102 -532 70 -99 -20 -129 -34 -165 -76 -46 -55 -29 -113 42 -149 20 -10 125 -46 232 -79 231 -70 319 -106 411 -168 172 -114 247 -281 220 -489 -45 -336 -294 -569 -702 -656 -134 -29 -402 -32 -549 -5 -212 37 -382 112 -524 229 l-30 24 134 179 c73 98 134 181 136 183 2 2 34 -11 70 -29 203 -100 534 -128 695 -59 106 46 140 133 79 202 -36 41 -127 73 -320 113 -69 14 -159 37 -200 51 -292 97 -422 281 -389 549 44 353 352 626 784 694 85 13 384 4 488 -15z"/>
  </g>
</svg>